<?xml version="1.0" encoding="UTF-8"?>
<svg width="1600" height="1350" xmlns="http://www.w3.org/2000/svg" xmlns:xlink="http://www.w3.org/1999/xlink">

  <!-- ==================== TITLE ==================== -->

  <rect x="20" y="20" width="400" height="50" fill="white" stroke="black" stroke-width="2"/>
  <text x="220" y="45" font-family="Arial" font-size="16" font-weight="bold" text-anchor="middle">15. Panzer-Division</text>
  <text x="220" y="62" font-family="Arial" font-size="11" text-anchor="middle">1941 Q2 - 140 tanks total</text>

  <!-- Commander below title -->
  <text x="220" y="80" font-family="Arial" font-size="9" font-style="italic" text-anchor="middle">Oberst Maximilian von Herff</text>

  <!-- Connecting line from title to Division HQ -->
  <line x1="220" y1="70" x2="220" y2="95" stroke="black" stroke-width="1"/>

  <!-- ==================== SECTION 1: DIVISION OVERVIEW ==================== -->

  <!-- Division HQ -->
  <rect x="20" y="95" width="250" height="35" fill="white" stroke="black" stroke-width="2"/>
  <text x="145" y="118" font-family="Arial" font-size="10" text-anchor="middle">Division HQ</text>

  <!-- Vertical line down from Division HQ -->
  <line x1="145" y1="130" x2="145" y2="155" stroke="black" stroke-width="1"/>

  <!-- Horizontal distributor line to regiments -->
  <line x1="75" y1="155" x2="215" y2="155" stroke="black" stroke-width="1"/>

  <!-- Vertical lines to major subordinate units -->
  <line x1="75" y1="155" x2="75" y2="175" stroke="black" stroke-width="1"/>
  <line x1="145" y1="155" x2="145" y2="175" stroke="black" stroke-width="1"/>
  <line x1="215" y1="155" x2="215" y2="175" stroke="black" stroke-width="1"/>

  <!-- Panzer-Regiment 8 -->
  <rect x="20" y="175" width="250" height="35" fill="white" stroke="black" stroke-width="2"/>
  <text x="145" y="198" font-family="Arial" font-size="10" text-anchor="middle">Panzer-Regiment 8</text>
  <text x="145" y="223" font-family="Arial" font-size="8" font-style="italic" text-anchor="middle">Oberst Walter von Bittenfeld</text>

  <!-- Equipment row for Panzer-Regiment 8 -->
  <line x1="270" y1="193" x2="310" y2="193" stroke="black" stroke-width="1"/>

  <image x="315" y="179" width="55" height="28" xlink:href="silhouettes/panzer_iii_ausf_g.png" preserveAspectRatio="xMidYMid meet"/>
  <text x="343" y="215" font-family="Arial" font-size="9" text-anchor="middle">85x Pz III</text>

  <image x="385" y="179" width="55" height="28" xlink:href="silhouettes/panzer_iv_ausf_f1.png" preserveAspectRatio="xMidYMid meet"/>
  <text x="413" y="215" font-family="Arial" font-size="9" text-anchor="middle">20x Pz IV (F1 shown)</text>

  <text x="520" y="193" font-family="Arial" font-size="9">20x Pz II Ausf C</text>
  <text x="520" y="203" font-family="Arial" font-size="9">10x Pz I Ausf B</text>
  <text x="520" y="213" font-family="Arial" font-size="9">5x Pz Bef</text>

  <!-- Aufklärungs-Abteilung 33 -->
  <rect x="20" y="240" width="250" height="35" fill="white" stroke="black" stroke-width="2"/>
  <text x="145" y="263" font-family="Arial" font-size="10" text-anchor="middle">Aufklärungs-Abteilung 33</text>
  <text x="145" y="288" font-family="Arial" font-size="8" font-style="italic" text-anchor="middle">Reconnaissance Battalion</text>

  <!-- Equipment row for Aufklärungs-Abt -->
  <line x1="270" y1="258" x2="310" y2="258" stroke="black" stroke-width="1"/>

  <image x="315" y="244" width="55" height="28" xlink:href="silhouettes/sd_kfz_231_8_rad.png" preserveAspectRatio="xMidYMid meet"/>
  <text x="343" y="280" font-family="Arial" font-size="9" text-anchor="middle">10x SdKfz 231</text>

  <text x="400" y="258" font-family="Arial" font-size="9">12x SdKfz 222 (silhouette needed)</text>

  <!-- Panzergrenadier Regiments -->
  <rect x="20" y="305" width="250" height="35" fill="white" stroke="black" stroke-width="2"/>
  <text x="145" y="328" font-family="Arial" font-size="10" text-anchor="middle">Panzergrenadier Regiments</text>
  <text x="145" y="353" font-family="Arial" font-size="8" font-style="italic" text-anchor="middle">Motorized Infantry</text>

  <!-- Equipment row for Panzergrenadiers -->
  <line x1="270" y1="323" x2="310" y2="323" stroke="black" stroke-width="1"/>

  <image x="315" y="309" width="55" height="28" xlink:href="silhouettes/sd_kfz_251.png" preserveAspectRatio="xMidYMid meet"/>
  <text x="343" y="345" font-family="Arial" font-size="9" text-anchor="middle">85x SdKfz 251</text>

  <image x="385" y="309" width="55" height="28" xlink:href="silhouettes/sd_kfz_250_3.png" preserveAspectRatio="xMidYMid meet"/>
  <text x="413" y="345" font-family="Arial" font-size="9" text-anchor="middle">30x SdKfz 250</text>

  <!-- ==================== SECTION DIVIDER ==================== -->

  <line x1="20" y1="375" x2="1580" y2="375" stroke="black" stroke-width="2"/>

  <!-- ==================== SECTION 2: DETAILED BREAKOUT ==================== -->

  <!-- Section title -->
  <rect x="20" y="395" width="500" height="40" fill="white" stroke="black" stroke-width="2"/>
  <text x="270" y="422" font-family="Arial" font-size="14" font-weight="bold" text-anchor="middle">Panzer-Regiment 8 - Detailed Organization</text>

  <!-- Connecting line from title to Regiment HQ -->
  <line x1="120" y1="435" x2="120" y2="460" stroke="black" stroke-width="1"/>

  <!-- Regiment HQ -->
  <rect x="20" y="460" width="250" height="35" fill="white" stroke="black" stroke-width="2"/>
  <text x="145" y="483" font-family="Arial" font-size="10" text-anchor="middle">Regimental HQ</text>

  <!-- Vertical line down from Regiment HQ -->
  <line x1="145" y1="495" x2="145" y2="520" stroke="black" stroke-width="1"/>

  <!-- Horizontal distributor line to battalions -->
  <line x1="80" y1="520" x2="210" y2="520" stroke="black" stroke-width="1"/>

  <!-- Vertical lines to battalions -->
  <line x1="80" y1="520" x2="80" y2="540" stroke="black" stroke-width="1"/>
  <line x1="210" y1="520" x2="210" y2="540" stroke="black" stroke-width="1"/>

  <!-- ==================== I. ABTEILUNG (Battalion 1) ==================== -->

  <!-- I. Abteilung -->
  <rect x="20" y="540" width="250" height="35" fill="white" stroke="black" stroke-width="2"/>
  <text x="145" y="563" font-family="Arial" font-size="10" text-anchor="middle">I. Abteilung</text>
  <text x="145" y="588" font-family="Arial" font-size="8" font-style="italic" text-anchor="middle">Major Heinrich Schmidt</text>

  <!-- Equipment row for I. Abteilung -->
  <line x1="270" y1="558" x2="310" y2="558" stroke="black" stroke-width="1"/>

  <image x="315" y="544" width="55" height="28" xlink:href="silhouettes/panzer_iii_ausf_j.png" preserveAspectRatio="xMidYMid meet"/>
  <text x="343" y="580" font-family="Arial" font-size="9" text-anchor="middle">42x Pz III (J shown for H)</text>

  <image x="435" y="544" width="55" height="28" xlink:href="silhouettes/panzer_iv_ausf_f1.png" preserveAspectRatio="xMidYMid meet"/>
  <text x="463" y="580" font-family="Arial" font-size="9" text-anchor="middle">10x Pz IV (F1 shown)</text>

  <text x="540" y="558" font-family="Arial" font-size="9">10x Pz II • 5x Pz I • 3x Pz Bef</text>

  <!-- Vertical line down from I. Abteilung -->
  <line x1="145" y1="575" x2="145" y2="585" stroke="black" stroke-width="1"/>

  <!-- Horizontal line to left edge -->
  <line x1="25" y1="585" x2="145" y2="585" stroke="black" stroke-width="1"/>

  <!-- Vertical line down left edge connecting all companies -->
  <line x1="25" y1="585" x2="25" y2="820" stroke="black" stroke-width="1"/>

  <!-- Horizontal stubs from left line to boxes (left-edge style) -->
  <line x1="20" y1="627" x2="25" y2="627" stroke="black" stroke-width="1"/>
  <line x1="20" y1="687" x2="25" y2="687" stroke="black" stroke-width="1"/>
  <line x1="20" y1="747" x2="25" y2="747" stroke="black" stroke-width="1"/>
  <line x1="20" y1="807" x2="25" y2="807" stroke="black" stroke-width="1"/>

  <!-- 1. Kompanie -->
  <rect x="20" y="610" width="160" height="35" fill="white" stroke="black" stroke-width="2"/>
  <text x="100" y="633" font-family="Arial" font-size="10" text-anchor="middle">1. Kompanie</text>
  <text x="100" y="658" font-family="Arial" font-size="8" font-style="italic" text-anchor="middle">Hauptmann Weber</text>

  <line x1="180" y1="627" x2="210" y2="627" stroke="black" stroke-width="1"/>
  <image x="215" y="616" width="45" height="23" xlink:href="silhouettes/panzer_iii_ausf_g.png" preserveAspectRatio="xMidYMid meet"/>
  <text x="237" y="650" font-family="Arial" font-size="9" text-anchor="middle">17x Pz III</text>

  <!-- 2. Kompanie -->
  <rect x="20" y="670" width="160" height="35" fill="white" stroke="black" stroke-width="2"/>
  <text x="100" y="693" font-family="Arial" font-size="10" text-anchor="middle">2. Kompanie</text>
  <text x="100" y="718" font-family="Arial" font-size="8" font-style="italic" text-anchor="middle">Hauptmann Müller</text>

  <line x1="180" y1="687" x2="210" y2="687" stroke="black" stroke-width="1"/>
  <image x="215" y="676" width="45" height="23" xlink:href="silhouettes/panzer_iii_ausf_g.png" preserveAspectRatio="xMidYMid meet"/>
  <text x="237" y="710" font-family="Arial" font-size="9" text-anchor="middle">17x Pz III</text>

  <!-- 3. Kompanie -->
  <rect x="20" y="730" width="160" height="35" fill="white" stroke="black" stroke-width="2"/>
  <text x="100" y="753" font-family="Arial" font-size="10" text-anchor="middle">3. Kompanie</text>
  <text x="100" y="778" font-family="Arial" font-size="8" font-style="italic" text-anchor="middle">Hauptmann Fischer</text>

  <line x1="180" y1="747" x2="210" y2="747" stroke="black" stroke-width="1"/>
  <image x="215" y="736" width="45" height="23" xlink:href="silhouettes/panzer_iii_ausf_g.png" preserveAspectRatio="xMidYMid meet"/>
  <text x="237" y="770" font-family="Arial" font-size="9" text-anchor="middle">17x Pz III</text>

  <!-- 4. Kompanie -->
  <rect x="20" y="790" width="160" height="35" fill="white" stroke="black" stroke-width="2"/>
  <text x="100" y="813" font-family="Arial" font-size="10" text-anchor="middle">4. Kompanie</text>
  <text x="100" y="838" font-family="Arial" font-size="8" font-style="italic" text-anchor="middle">Hauptmann Becker</text>

  <line x1="180" y1="807" x2="210" y2="807" stroke="black" stroke-width="1"/>
  <image x="215" y="796" width="45" height="23" xlink:href="silhouettes/panzer_iii_ausf_g.png" preserveAspectRatio="xMidYMid meet"/>
  <text x="237" y="820" font-family="Arial" font-size="9" text-anchor="middle">12x Pz III</text>
  <image x="270" y="796" width="45" height="23" xlink:href="silhouettes/panzer_iv_ausf_f1.png" preserveAspectRatio="xMidYMid meet"/>
  <text x="300" y="820" font-family="Arial" font-size="9" text-anchor="middle">5x Pz IV</text>

  <!-- ==================== II. ABTEILUNG (Battalion 2) ==================== -->

  <!-- II. Abteilung -->
  <rect x="20" y="870" width="250" height="35" fill="white" stroke="black" stroke-width="2"/>
  <text x="145" y="893" font-family="Arial" font-size="10" text-anchor="middle">II. Abteilung</text>
  <text x="145" y="918" font-family="Arial" font-size="8" font-style="italic" text-anchor="middle">Major Karl Hoffmann</text>

  <!-- Equipment row for II. Abteilung -->
  <line x1="270" y1="888" x2="310" y2="888" stroke="black" stroke-width="1"/>

  <image x="315" y="874" width="55" height="28" xlink:href="silhouettes/panzer_iii_ausf_j.png" preserveAspectRatio="xMidYMid meet"/>
  <text x="343" y="910" font-family="Arial" font-size="9" text-anchor="middle">43x Pz III (J shown for H)</text>

  <image x="435" y="874" width="55" height="28" xlink:href="silhouettes/panzer_iv_ausf_f1.png" preserveAspectRatio="xMidYMid meet"/>
  <text x="463" y="910" font-family="Arial" font-size="9" text-anchor="middle">10x Pz IV (F1 shown)</text>

  <text x="540" y="888" font-family="Arial" font-size="9">10x Pz II • 5x Pz I • 2x Pz Bef</text>

  <!-- Vertical line down from II. Abteilung -->
  <line x1="145" y1="905" x2="145" y2="915" stroke="black" stroke-width="1"/>

  <!-- Horizontal line to left edge -->
  <line x1="25" y1="915" x2="145" y2="915" stroke="black" stroke-width="1"/>

  <!-- Vertical line down left edge connecting all companies -->
  <line x1="25" y1="915" x2="25" y2="1137" stroke="black" stroke-width="1"/>

  <!-- Horizontal stubs from left line to boxes (left-edge style) -->
  <line x1="20" y1="942" x2="25" y2="942" stroke="black" stroke-width="1"/>
  <line x1="20" y1="1002" x2="25" y2="1002" stroke="black" stroke-width="1"/>
  <line x1="20" y1="1062" x2="25" y2="1062" stroke="black" stroke-width="1"/>
  <line x1="20" y1="1122" x2="25" y2="1122" stroke="black" stroke-width="1"/>

  <!-- 5. Kompanie -->
  <rect x="20" y="925" width="160" height="35" fill="white" stroke="black" stroke-width="2"/>
  <text x="100" y="948" font-family="Arial" font-size="10" text-anchor="middle">5. Kompanie</text>
  <text x="100" y="973" font-family="Arial" font-size="8" font-style="italic" text-anchor="middle">Hauptmann Schulz</text>

  <line x1="180" y1="942" x2="210" y2="942" stroke="black" stroke-width="1"/>
  <image x="215" y="931" width="45" height="23" xlink:href="silhouettes/panzer_iii_ausf_g.png" preserveAspectRatio="xMidYMid meet"/>
  <text x="237" y="965" font-family="Arial" font-size="9" text-anchor="middle">17x Pz III</text>

  <!-- 6. Kompanie -->
  <rect x="20" y="985" width="160" height="35" fill="white" stroke="black" stroke-width="2"/>
  <text x="100" y="1008" font-family="Arial" font-size="10" text-anchor="middle">6. Kompanie</text>
  <text x="100" y="1033" font-family="Arial" font-size="8" font-style="italic" text-anchor="middle">Hauptmann Koch</text>

  <line x1="180" y1="1002" x2="210" y2="1002" stroke="black" stroke-width="1"/>
  <image x="215" y="991" width="45" height="23" xlink:href="silhouettes/panzer_iii_ausf_g.png" preserveAspectRatio="xMidYMid meet"/>
  <text x="237" y="1025" font-family="Arial" font-size="9" text-anchor="middle">17x Pz III</text>

  <!-- 7. Kompanie -->
  <rect x="20" y="1045" width="160" height="35" fill="white" stroke="black" stroke-width="2"/>
  <text x="100" y="1068" font-family="Arial" font-size="10" text-anchor="middle">7. Kompanie</text>
  <text x="100" y="1093" font-family="Arial" font-size="8" font-style="italic" text-anchor="middle">Hauptmann Braun</text>

  <line x1="180" y1="1062" x2="210" y2="1062" stroke="black" stroke-width="1"/>
  <image x="215" y="1051" width="45" height="23" xlink:href="silhouettes/panzer_iii_ausf_g.png" preserveAspectRatio="xMidYMid meet"/>
  <text x="237" y="1085" font-family="Arial" font-size="9" text-anchor="middle">17x Pz III</text>

  <!-- 8. Kompanie -->
  <rect x="20" y="1105" width="160" height="35" fill="white" stroke="black" stroke-width="2"/>
  <text x="100" y="1128" font-family="Arial" font-size="10" text-anchor="middle">8. Kompanie</text>
  <text x="100" y="1153" font-family="Arial" font-size="8" font-style="italic" text-anchor="middle">Hauptmann Wagner</text>

  <line x1="180" y1="1122" x2="210" y2="1122" stroke="black" stroke-width="1"/>
  <image x="215" y="1111" width="45" height="23" xlink:href="silhouettes/panzer_iii_ausf_g.png" preserveAspectRatio="xMidYMid meet"/>
  <text x="237" y="1145" font-family="Arial" font-size="9" text-anchor="middle">12x Pz III</text>
  <image x="270" y="1111" width="45" height="23" xlink:href="silhouettes/panzer_iv_ausf_f1.png" preserveAspectRatio="xMidYMid meet"/>
  <text x="300" y="1145" font-family="Arial" font-size="9" text-anchor="middle">5x Pz IV</text>

  <!-- ==================== FOOTER NOTES ==================== -->

  <text x="20" y="1230" font-family="Arial" font-size="9" font-style="italic">Note: ONE silhouette represents each vehicle TYPE with count (not individual vehicles). Commander names shown below each unit.</text>
  <text x="20" y="1245" font-family="Arial" font-size="9" font-style="italic">Silhouettes marked "(J shown for H)" or "(F1 shown)" indicate similar variant used as placeholder.</text>
  <text x="20" y="1260" font-family="Arial" font-size="9" font-style="italic">Standardized sizes: Regiment/Battalion level 55×28px, Company level 45×23px. Connecting lines use 10px stubs for visual clarity.</text>
  <text x="20" y="1275" font-family="Arial" font-size="9" font-style="italic">See 15_PANZER_DIVISION_SILHOUETTES_NEEDED.md for complete equipment requirements and missing silhouettes.</text>

</svg>
